<mxfile host="app.diagrams.net" modified="2020-09-17T10:48:03.147Z" agent="5.0 (Macintosh; Intel Mac OS X 10_16_0) AppleWebKit/537.36 (KHTML, like Gecko) Chrome/85.0.4183.83 Safari/537.36 Edg/85.0.564.41" etag="erzssI7Dn5bEFlu2QvJM" version="13.7.2" type="github">
  <diagram id="RNZpPz3kqzwRVspyFrMV" name="Page-1">
    <mxGraphModel dx="946" dy="646" grid="1" gridSize="10" guides="1" tooltips="1" connect="1" arrows="1" fold="1" page="1" pageScale="1" pageWidth="827" pageHeight="1169" math="0" shadow="0">
      <root>
        <mxCell id="0" />
        <mxCell id="1" parent="0" />
        <mxCell id="5qMArC0BSTSA2wXwf98W-5" value="" style="edgeStyle=orthogonalEdgeStyle;rounded=0;orthogonalLoop=1;jettySize=auto;html=1;" parent="1" source="5qMArC0BSTSA2wXwf98W-1" target="5qMArC0BSTSA2wXwf98W-4" edge="1">
          <mxGeometry relative="1" as="geometry" />
        </mxCell>
        <mxCell id="5qMArC0BSTSA2wXwf98W-1" value="" style="ellipse;whiteSpace=wrap;html=1;fillColor=#dae8fc;strokeColor=#6c8ebf;" parent="1" vertex="1">
          <mxGeometry x="170" y="340" width="120" height="80" as="geometry" />
        </mxCell>
        <mxCell id="5qMArC0BSTSA2wXwf98W-7" value="" style="edgeStyle=orthogonalEdgeStyle;rounded=0;orthogonalLoop=1;jettySize=auto;html=1;" parent="1" source="5qMArC0BSTSA2wXwf98W-4" target="5qMArC0BSTSA2wXwf98W-6" edge="1">
          <mxGeometry relative="1" as="geometry" />
        </mxCell>
        <mxCell id="5qMArC0BSTSA2wXwf98W-4" value="" style="ellipse;whiteSpace=wrap;html=1;strokeColor=#6c8ebf;fillColor=#dae8fc;" parent="1" vertex="1">
          <mxGeometry x="170" y="470" width="120" height="80" as="geometry" />
        </mxCell>
        <mxCell id="5qMArC0BSTSA2wXwf98W-9" value="" style="edgeStyle=orthogonalEdgeStyle;rounded=0;orthogonalLoop=1;jettySize=auto;html=1;" parent="1" source="5qMArC0BSTSA2wXwf98W-6" target="5qMArC0BSTSA2wXwf98W-8" edge="1">
          <mxGeometry relative="1" as="geometry" />
        </mxCell>
        <mxCell id="5qMArC0BSTSA2wXwf98W-6" value="" style="shape=hexagon;perimeter=hexagonPerimeter2;whiteSpace=wrap;html=1;fixedSize=1;strokeColor=#6c8ebf;fillColor=#dae8fc;" parent="1" vertex="1">
          <mxGeometry x="370" y="470" width="120" height="80" as="geometry" />
        </mxCell>
        <mxCell id="5qMArC0BSTSA2wXwf98W-11" value="" style="edgeStyle=orthogonalEdgeStyle;rounded=0;orthogonalLoop=1;jettySize=auto;html=1;" parent="1" source="5qMArC0BSTSA2wXwf98W-8" target="5qMArC0BSTSA2wXwf98W-10" edge="1">
          <mxGeometry relative="1" as="geometry" />
        </mxCell>
        <mxCell id="5qMArC0BSTSA2wXwf98W-8" value="" style="shape=cylinder;whiteSpace=wrap;html=1;boundedLbl=1;backgroundOutline=1;strokeColor=#6c8ebf;fillColor=#dae8fc;" parent="1" vertex="1">
          <mxGeometry x="400" y="310" width="60" height="80" as="geometry" />
        </mxCell>
        <mxCell id="5qMArC0BSTSA2wXwf98W-10" value="" style="ellipse;shape=cloud;whiteSpace=wrap;html=1;strokeColor=#6c8ebf;fillColor=#dae8fc;" parent="1" vertex="1">
          <mxGeometry x="510" y="310" width="120" height="80" as="geometry" />
        </mxCell>
      </root>
    </mxGraphModel>
  </diagram>
</mxfile>
